<svg xmlns="http://www.w3.org/2000/svg" version="1.1" xmlns:xlink="http://www.w3.org/1999/xlink" xmlns:svgjs="http://svgjs.dev/svgjs" width="128" height="128" viewBox="0 0 128 128"><g transform="matrix(0.8046875,0,0,0.8046875,12.464366239495249,6.558313232421874)"><svg viewBox="0 0 86 96" data-background-color="#89939e" preserveAspectRatio="xMidYMid meet" height="142" width="128" xmlns="http://www.w3.org/2000/svg" xmlns:xlink="http://www.w3.org/1999/xlink"><g id="tight-bounds" transform="matrix(1,0,0,1,0.029752460227271627,0.25950000000000273)"><svg viewBox="0 0 85.94049507954544 95.481" height="95.481" width="85.94049507954544"><g><svg viewBox="0 0 85.94049507954544 95.481" height="95.481" width="85.94049507954544"><g><svg viewBox="0 0 85.94049507954544 95.481" height="95.481" width="85.94049507954544"><g id="textblocktransform"><svg viewBox="0 0 85.94049507954544 95.481" height="95.481" width="85.94049507954544" id="textblock"><g><svg viewBox="0 0 85.94049507954544 95.481" height="95.481" width="85.94049507954544"><g><svg viewBox="0 0 85.94049507954544 95.481" height="95.481" width="85.94049507954544"><g><svg xmlns:x="http://ns.adobe.com/Extensibility/1.0/" xmlns:i="http://ns.adobe.com/AdobeIllustrator/10.0/" xmlns:graph="http://ns.adobe.com/Graphs/1.0/" xmlns="http://www.w3.org/2000/svg" xmlns:xlink="http://www.w3.org/1999/xlink" version="1.1" x="0" y="0" viewBox="10.397 6 79.207 88" enable-background="new 0 0 100 100" xml:space="preserve" height="95.481" width="85.94049507954544" class="icon-icon-0" data-fill-palette-color="accent" id="icon-0"><g fill="#ffffff" data-fill-palette-color="accent"><path d="M47.069 38.241C39.777 38.241 33.845 44.173 33.845 51.465S39.777 64.69 47.069 64.69 60.293 58.757 60.293 51.465 54.36 38.241 47.069 38.241M47.069 61.689C41.431 61.689 36.845 57.102 36.845 51.464 36.845 45.827 41.431 41.24 47.069 41.24 52.706 41.24 57.293 45.826 57.293 51.464 57.293 57.103 52.706 61.689 47.069 61.689" fill="#000000" data-fill-palette-color="accent"></path><path d="M47.069 44.604A1 1 0 0 0 47.069 46.604 4.87 4.87 0 0 1 51.932 51.465 1 1 0 1 0 53.932 51.465C53.932 47.682 50.853 44.604 47.069 44.604" fill="#000000" data-fill-palette-color="accent"></path><path d="M89.604 36.811C89.604 31.135 84.987 26.518 79.311 26.518A10.2 10.2 0 0 0 74.386 27.776C67.501 19.839 57.596 15.294 47.069 15.294 42.735 15.294 38.502 16.06 34.477 17.556 32.086 14.12 28.115 11.863 23.621 11.863 16.329 11.863 10.397 17.795 10.397 25.087 10.397 29.028 12.139 32.561 14.882 34.986A36.2 36.2 0 0 0 10.897 51.465C10.897 62.938 16.365 73.712 25.56 80.529A10.3 10.3 0 0 0 25.052 83.707C25.052 89.383 29.669 94 35.345 94 39.656 94 43.351 91.333 44.881 87.565 45.608 87.608 46.339 87.637 47.069 87.637 67.015 87.637 83.241 71.409 83.241 51.464A36.5 36.5 0 0 0 82.889 46.448C86.804 44.99 89.604 41.226 89.604 36.811M13.396 25.086C13.396 19.448 17.982 14.862 23.62 14.862S33.844 19.448 33.844 25.086 29.258 35.31 23.62 35.31 13.396 30.724 13.396 25.086M35.345 91C31.324 91 28.052 87.729 28.052 83.707S31.323 76.414 35.345 76.414 42.638 79.685 42.638 83.707 39.366 91 35.345 91M81.241 51.465C81.241 70.308 65.911 85.638 47.069 85.638A35 35 0 0 1 45.457 85.597C45.571 84.984 45.639 84.354 45.639 83.707 45.639 78.031 41.021 73.414 35.346 73.414 31.507 73.414 28.158 75.53 26.388 78.654 17.919 72.201 12.897 62.152 12.897 51.465A34.2 34.2 0 0 1 16.5 36.212 13.13 13.13 0 0 0 23.622 38.311C30.914 38.311 36.846 32.379 36.846 25.087 36.846 23.015 36.353 21.06 35.5 19.312A34 34 0 0 1 47.07 17.293C56.938 17.293 66.227 21.521 72.724 28.911A10.28 10.28 0 0 0 69.019 36.811C69.019 42.487 73.636 47.104 79.312 47.104 79.87 47.104 80.413 47.047 80.946 46.961 81.14 48.448 81.241 49.958 81.241 51.465M79.311 44.104C75.29 44.104 72.018 40.833 72.018 36.811S75.289 29.518 79.311 29.518 86.604 32.79 86.604 36.811 83.332 44.104 79.311 44.104" fill="#000000" data-fill-palette-color="accent"></path><path d="M64.655 55.828C62.212 55.828 60.224 57.815 60.224 60.259S62.211 64.69 64.655 64.69 69.086 62.703 69.086 60.259 67.099 55.828 64.655 55.828M64.655 61.689C63.866 61.689 63.224 61.047 63.224 60.258S63.866 58.827 64.655 58.827 66.086 59.469 66.086 60.258 65.444 61.689 64.655 61.689" fill="#000000" data-fill-palette-color="accent"></path><path d="M79.311 14.862C81.754 14.862 83.742 12.874 83.742 10.431S81.754 6 79.311 6 74.879 7.988 74.879 10.431 76.867 14.862 79.311 14.862M79.311 9C80.1 9 80.742 9.642 80.742 10.431A1.433 1.433 0 0 1 77.879 10.431C77.879 9.642 78.521 9 79.311 9" fill="#000000" data-fill-palette-color="accent"></path><path d="M23.621 20.224A4.867 4.867 0 0 1 28.483 25.086 1 1 0 0 0 30.483 25.086 6.87 6.87 0 0 0 23.621 18.224 1 1 0 0 0 23.621 20.224" fill="#000000" data-fill-palette-color="accent"></path><path d="M79.311 32.879A1 1 0 1 0 79.311 34.879C80.375 34.879 81.242 35.745 81.242 36.81A1 1 0 1 0 83.242 36.81 3.937 3.937 0 0 0 79.311 32.879" fill="#000000" data-fill-palette-color="accent"></path><path d="M35.345 79.775A1 1 0 1 0 35.345 81.775C36.41 81.775 37.276 82.641 37.276 83.707A1 1 0 1 0 39.276 83.707 3.936 3.936 0 0 0 35.345 79.775" fill="#000000" data-fill-palette-color="accent"></path></g></svg><g></g></g></svg></g></svg></g></svg></g></svg></g><g></g></svg></g><defs></defs></svg><rect width="85.94049507954544" height="95.481" fill="none" stroke="none" visibility="hidden"></rect></g></svg></g></svg>