<svg id="dxe-0" xmlns="http://www.w3.org/2000/svg" viewBox="0 0 3017.63 885.94"><defs><style>.cls-1{fill:#fff;}</style></defs><g id="tight-bounds"><g id="textblocktransform"><path id="text-0" class="cls-1" d="M1231.91,567.15V521.76h0q0-7.77-.16-14.15a43,43,0,0,0-1.47-10.39h0q-.42-2.45-6.3-3.92a99.38,99.38,0,0,0-12.27-2.05c-4.25-.38-7.2-.57-8.83-.57h0q-1.23-1.64-1.39-5.73c-.17-2.72.3-4.63,1.39-5.72h0q12.27.4,23.72,1.23t22.9.81h0q11.85,0,22.33-.81t22.65-1.23h0q1.63,1.63,1.47,5.72t-1.47,5.73h0c-1.63,0-4.5.19-8.59.57a78.14,78.14,0,0,0-11.45,2.05c-3.54,1-5.59,2.29-6.13,3.92h0a44,44,0,0,0-1.8,12.68q-.24,7.77-.25,16.77h0v28.22c0,4.36.69,7.63,2,9.81a12.27,12.27,0,0,1,2,6.54h0a4,4,0,0,1-1.22,2.87,35.8,35.8,0,0,1-6.55,4.09h0q-8.58,4.49-19.79,9.4t-28.22,8.18q-17,3.27-43.59,3.27h0q-29.45,0-54-10.47a128.74,128.74,0,0,1-69.69-70.34,130.39,130.39,0,0,1-9.65-50.05h0a139.49,139.49,0,0,1,10.06-53,140.89,140.89,0,0,1,28-43.92,128.78,128.78,0,0,1,42.78-30.1q24.71-10.8,54.14-10.8h0q19.64,0,41.14,1.64a309.17,309.17,0,0,1,43.52,6.54h0l1.47,8.34q1.4,8.43,3,19.63t3.1,20.45q1.39,9.24,1.39,10.88h0q.42,1.63-2.45,3.27a12.17,12.17,0,0,1-6.13,1.64h0a9.34,9.34,0,0,1-4.91-1.23h0a123.9,123.9,0,0,0-3.85-13.91q-3.11-9.4-11-19.62t-23.14-17.43q-15.13-7.11-40.08-7.11h0a81.18,81.18,0,0,0-40.08,10,99,99,0,0,0-30.83,27,126.21,126.21,0,0,0-19.63,37.62,132.51,132.51,0,0,0-6.79,41.55h0a167.14,167.14,0,0,0,6.38,45.8,129.69,129.69,0,0,0,19.22,40.65,95.94,95.94,0,0,0,32.31,29Q1154.62,586,1180.79,586h0a81.75,81.75,0,0,0,27.65-4.34,185.46,185.46,0,0,0,21-8.75h0c1.36-.55,2.13-1.31,2.29-2.29a30.09,30.09,0,0,0,.16-3.44Zm109.6-16.76V373.72c0-3-.08-6.62-.24-10.88a26.82,26.82,0,0,0-1.8-10h0q-1.63-4.49-8.84-5.72a89.79,89.79,0,0,0-15.29-1.23h0c-.27,0-.49-1.72-.66-5.15s.25-5.21,1.07-5.48h0a161.07,161.07,0,0,0,29.44-6,213,213,0,0,0,27-10h0c1.09,0,2.1.74,3,2.21a8.1,8.1,0,0,1,1.47,4.33h0s-.76,3-2.29,9-2.21,14.59-2.21,25.76h0V550.39q0,9,.17,16.76a45.39,45.39,0,0,0,1.88,12.68h0c.54,1.36,2.51,2.59,5.89,3.68a53.32,53.32,0,0,0,11,2.21c4,.44,6.79.65,8.42.65h0c.82,1.1,1.28,3,1.39,5.73s-.3,4.63-1.39,5.73h0q-12.27-.83-21.67-1.48t-21.27-.57h0q-11.45,0-20.69.57t-21.43,1.48h0c-1.09-1.1-1.58-3-1.47-5.73s.65-4.63,1.47-5.73h0a81,81,0,0,0,8.18-.65,56.39,56.39,0,0,0,11-2.21c3.55-1.09,5.45-2.32,5.73-3.68h0a43.91,43.91,0,0,0,1.8-12.68q.24-7.77.24-16.76Zm162.35-128h0a35.38,35.38,0,0,1,21.43,7.36,53.29,53.29,0,0,1,16.2,19.63,61.3,61.3,0,0,1,6.13,27.8h0v82.2a28.4,28.4,0,0,0,2.86,13.25,9.81,9.81,0,0,0,9.41,5.57h0q5.73,0,9-2.46a41.4,41.4,0,0,1,4.09-2.86h0c.54,0,1,.41,1.22,1.23a6.48,6.48,0,0,1,.41,2h0a14.38,14.38,0,0,1-2,7.77h0q-2.46,2-8,5.73a100.38,100.38,0,0,1-11.45,6.54,24.4,24.4,0,0,1-10.47,2.86h0q-8.51,0-15.29-8.59a44.65,44.65,0,0,1-8.75-17.58h0A91,91,0,0,1,1511,579a146.81,146.81,0,0,1-13.66,9.16,138.64,138.64,0,0,1-15.38,8.18q-7.51,3.52-12.84,3.52h0q-19.62,0-33.12-13.33a43.76,43.76,0,0,1-13.5-32.47h0q0-12.27,6.71-21.1t13.33-11.21h0q11.46-4.1,25.52-8.83t26.42-9.16q12.27-4.5,18-7h0c2.18-.81,3.55-1.85,4.09-3.1s.82-3.57.82-7.12h0V476a38.92,38.92,0,0,0-4.5-17.83,43.26,43.26,0,0,0-12.27-14.72,28.33,28.33,0,0,0-17.58-5.89h0q-10.23,0-15.13,6.54t-7,18.4h0q-3.68,19.23-18.81,19.22h0a11.36,11.36,0,0,1-10.06-5.31,20.72,20.72,0,0,1-3.43-11.45h0a25.85,25.85,0,0,1,.82-4.75,13.94,13.94,0,0,1,2-5.07h0a150,150,0,0,1,17.58-13.49,133.74,133.74,0,0,1,25.93-13.5A78.39,78.39,0,0,1,1503.86,422.39ZM1482.6,578.2h0a40.84,40.84,0,0,0,15.13-3.28,71.85,71.85,0,0,0,13.9-7.19q5.73-3.86,5.73-5.89h0V507.45q-7.77,2.44-19.63,6.13t-17.58,5.73h0a44.62,44.62,0,0,0-17.59,11.86q-6.94,7.77-7,19.22h0a27.55,27.55,0,0,0,7.77,19.38A25.1,25.1,0,0,0,1482.6,578.2Zm156.14-153.77h51.11q16.37,0,26.42-.82t22.25-2.45h0a8.12,8.12,0,0,1,1.23,4.25v4.34h0V431h0l-5.73,8.18q-5.73,8.19-15.13,21.68t-20.61,29.44q-11.29,15.94-22.74,32.06t-20.85,29.86q-9.42,13.74-15.14,21.92t-5.72,8.58h56q18.4,0,29.29-11.69t14.47-24.29h0a2.64,2.64,0,0,1,2.87-2.46h0a12.79,12.79,0,0,1,10.22,4.91h0l-3.27,7.93q-3.27,8-7.36,19.06t-7.36,20.45H1599.07a10.82,10.82,0,0,1-4.09-3.27,7.72,7.72,0,0,1-2-4.91h0v-1.23a1.66,1.66,0,0,1,.41-1.22h0L1696,438.33l-56-.4q-11.45,0-17.34,5.48a33.18,33.18,0,0,0-8.58,12.26q-2.7,6.79-4.34,10.47h0q-1.64,3.27-8.59,3.27h0q-4.5,0-4.5-.81h0q1.23-4.5,3.52-18a269.37,269.37,0,0,0,3-29.44h0l6,.82c3.92.54,8.7,1.09,14.31,1.63S1634.1,424.43,1638.74,424.43Zm163.17,73.2h0q-.42,25.36,8.59,42.53t24.12,25.52a66.16,66.16,0,0,0,32.72,8.43h0a49.56,49.56,0,0,0,20-3.93,59.79,59.79,0,0,0,15.13-9,75.9,75.9,0,0,0,8.59-7.93h0c.27,0,.9.46,1.88,1.39a5.47,5.47,0,0,1,1.39,3.93h0a14.65,14.65,0,0,1-2.46,7.36h0a91.62,91.62,0,0,1-11.45,13.66,75.11,75.11,0,0,1-19.63,14.15q-11.85,6.13-27.4,6.13h0q-23.31,0-41.3-11A78.21,78.21,0,0,1,1783.91,559q-10.22-18.81-10.22-42.12h0a97.12,97.12,0,0,1,7.2-37.46,102.69,102.69,0,0,1,18.81-30.26,93.3,93.3,0,0,1,25.52-20.2q13.9-7.37,27-7.36h0q18,0,29.61,6.13a53.47,53.47,0,0,1,18.4,15.13,57.69,57.69,0,0,1,9.49,18,56.09,56.09,0,0,1,2.61,15.13h0q0,8.58-2,13.49t-7.77,5.32h0q-3.67.41-14.56.57t-24.7.66l-27.4.81q-13.5.42-22.9.58T1801.91,497.63Zm2-14.72h65a10.24,10.24,0,0,0,6.37-2c1.75-1.37,2.76-3.82,3-7.37h0q.4-4.9-2.86-13.9a46.11,46.11,0,0,0-10.39-16.36q-7.2-7.37-19.47-7.36h0q-12.67,0-20.85,7.12A55,55,0,0,0,1812,459.35a79.42,79.42,0,0,0-6.55,16.36Q1803.55,482.91,1804,482.91Zm336.16,84.24V521.76h0q0-7.77-.25-14.15a40.54,40.54,0,0,0-1.39-10.39h0q-.41-2.45-6.38-3.92a95.86,95.86,0,0,0-12.26-2.05q-6.3-.57-8.76-.57h0q-1.21-1.64-1.47-5.73t1.47-5.72h0q12.27.4,23.72,1.23t22.9.81h0q11.86,0,22.25-.81t22.74-1.23h0q1.64,1.63,1.39,5.72t-1.39,5.73h0q-2.46,0-8.59.57a77.9,77.9,0,0,0-11.45,2.05c-3.54,1-5.59,2.29-6.13,3.92h0a45.78,45.78,0,0,0-1.89,12.68q-.15,7.77-.16,16.77h0v28.22q0,6.54,2.05,9.81a12.27,12.27,0,0,1,2,6.54h0a3.94,3.94,0,0,1-1.23,2.87,35.57,35.57,0,0,1-6.54,4.09h0q-8.58,4.49-19.87,9.4t-28.22,8.18q-16.93,3.27-43.51,3.27h0q-29.44,0-54-10.47a128.57,128.57,0,0,1-69.76-70.34,131.28,131.28,0,0,1-9.57-50.05h0a140.41,140.41,0,0,1,10-53,141.84,141.84,0,0,1,28.05-43.92,129,129,0,0,1,42.69-30.1q24.8-10.8,54.23-10.8h0q19.64,0,41.06,1.64a308.82,308.82,0,0,1,43.59,6.54h0s.47,2.78,1.39,8.34,2,12.16,3.11,19.63,2.1,14.34,3,20.45,1.47,9.79,1.47,10.88h0c.27,1.09-.54,2.18-2.45,3.27a12.2,12.2,0,0,1-6.14,1.64h0a9.31,9.31,0,0,1-4.9-1.23h0a117.91,117.91,0,0,0-3.93-13.91q-3-9.4-11-19.62t-23.07-17.43q-15.12-7.11-40.07-7.11h0a81.12,81.12,0,0,0-40.08,10,99.9,99.9,0,0,0-30.92,27,129,129,0,0,0-19.63,37.62,134.13,134.13,0,0,0-6.7,41.55h0a169.37,169.37,0,0,0,6.29,45.8A132.39,132.39,0,0,0,2011,546.05a97.08,97.08,0,0,0,32.31,29Q2062.82,586,2089,586h0a81,81,0,0,0,27.56-4.34,182.8,182.8,0,0,0,21.11-8.75h0c1.36-.55,2.09-1.31,2.2-2.29a19.55,19.55,0,0,0,.25-3.44Zm170.12-144.76h0a35.38,35.38,0,0,1,21.43,7.36,53.67,53.67,0,0,1,16.11,19.63,61.3,61.3,0,0,1,6.14,27.8h0v82.2a28.28,28.28,0,0,0,2.86,13.25,9.9,9.9,0,0,0,9.41,5.57h0q5.81,0,9-2.46a42.72,42.72,0,0,1,4.09-2.86h0q.9,0,1.23,1.23a5.66,5.66,0,0,1,.49,2h0a14.38,14.38,0,0,1-2,7.77h0q-2.54,2-8,5.73a91.74,91.74,0,0,1-11.45,6.54,24.35,24.35,0,0,1-10.39,2.86h0q-8.67,0-15.37-8.59a44.68,44.68,0,0,1-8.76-17.58h0q-1.71,1.64-7.6,6.13a142.23,142.23,0,0,1-13.74,9.16,134.27,134.27,0,0,1-15.3,8.18q-7.51,3.52-12.84,3.52h0q-19.71,0-33.21-13.33t-13.41-32.47h0q0-12.27,6.71-21.1t13.33-11.21h0q11.45-4.1,25.52-8.83t26.33-9.16q12.27-4.5,18.08-7h0c2.13-.81,3.49-1.85,4.09-3.1s.82-3.57.82-7.12h0V476a38.42,38.42,0,0,0-4.58-17.83,42.16,42.16,0,0,0-12.27-14.72,28.14,28.14,0,0,0-17.59-5.89h0q-10.22,0-15.13,6.54t-6.87,18.4h0q-3.67,19.23-18.89,19.22h0a11.29,11.29,0,0,1-10-5.31,20.72,20.72,0,0,1-3.43-11.45h0a26.45,26.45,0,0,1,.81-4.75,14.1,14.1,0,0,1,2-5.07h0a150,150,0,0,1,17.58-13.49,130.36,130.36,0,0,1,25.93-13.5A78.39,78.39,0,0,1,2310.23,422.39ZM2289,578.2h0a40.84,40.84,0,0,0,15.13-3.28,69.6,69.6,0,0,0,13.82-7.19q5.8-3.86,5.81-5.89h0V507.45l-19.63,6.13q-11.86,3.69-17.67,5.73h0a45.39,45.39,0,0,0-17.58,11.86q-7,7.77-7,19.22h0a27.39,27.39,0,0,0,7.86,19.38A25.08,25.08,0,0,0,2289,578.2Zm132.42-27.81V373.72c0-3-.06-6.62-.17-10.88a27.69,27.69,0,0,0-1.88-10h0q-1.64-4.49-8.75-5.72a91.38,91.38,0,0,0-15.38-1.23h0c-.27,0-.46-1.72-.57-5.15s.16-5.21,1-5.48h0a161.18,161.18,0,0,0,29.45-6,213.53,213.53,0,0,0,27-10h0c1.09,0,2.12.74,3.1,2.21a8.38,8.38,0,0,1,1.39,4.33h0s-.73,3-2.2,9-2.29,14.59-2.29,25.76h0V550.39q0,9,.24,16.76a43.91,43.91,0,0,0,1.8,12.68h0q.83,2,6,3.68a52,52,0,0,0,11,2.21c3.93.44,6.71.65,8.35.65h0c.81,1.1,1.3,3,1.47,5.73s-.38,4.63-1.47,5.73h0q-12.27-.83-21.68-1.48t-21.26-.57h0q-11.46,0-20.61.57t-21.52,1.48h0c-1.09-1.1-1.55-3-1.39-5.73s.58-4.63,1.39-5.73h0a80.81,80.81,0,0,0,8.18-.65,56.64,56.64,0,0,0,11-2.21q5.31-1.63,5.72-3.68h0a45.39,45.39,0,0,0,1.88-12.68q.17-7.77.17-16.76Zm162.35-128h0a35.4,35.4,0,0,1,21.43,7.36,53.37,53.37,0,0,1,16.19,19.63,61.3,61.3,0,0,1,6.14,27.8h0v82.2a28.28,28.28,0,0,0,2.86,13.25,9.79,9.79,0,0,0,9.4,5.57h0q5.73,0,9-2.46a42.72,42.72,0,0,1,4.09-2.86h0q.83,0,1.23,1.23a6.77,6.77,0,0,1,.41,2h0a14.3,14.3,0,0,1-2,7.77h0q-2.45,2-7.93,5.73a101.24,101.24,0,0,1-11.45,6.54,24.84,24.84,0,0,1-10.47,2.86h0q-8.6,0-15.38-8.59a44.65,44.65,0,0,1-8.75-17.58h0a91,91,0,0,1-7.61,6.13,145.25,145.25,0,0,1-13.65,9.16,139.53,139.53,0,0,1-15.38,8.18q-7.53,3.52-12.84,3.52h0q-19.64,0-33.13-13.33a43.78,43.78,0,0,1-13.49-32.47h0q0-12.27,6.7-21.1t13.34-11.21h0q11.45-4.1,25.51-8.83t26.42-9.16q12.27-4.5,18-7h0c2.18-.81,3.54-1.85,4.09-3.1s.81-3.57.81-7.12h0V476a39,39,0,0,0-4.49-17.83,43.26,43.26,0,0,0-12.27-14.72,28.34,28.34,0,0,0-17.59-5.89h0q-10.22,0-15.13,6.54t-6.95,18.4h0q-3.69,19.23-18.81,19.22h0a11.34,11.34,0,0,1-10.06-5.31,20.73,20.73,0,0,1-3.44-11.45h0a25.85,25.85,0,0,1,.82-4.75,14.12,14.12,0,0,1,2-5.07h0a150.25,150.25,0,0,1,17.59-13.49,133.46,133.46,0,0,1,25.93-13.5A78.35,78.35,0,0,1,2583.74,422.39ZM2562.47,578.2h0a40.8,40.8,0,0,0,15.13-3.28,72,72,0,0,0,13.91-7.19c3.82-2.57,5.72-4.53,5.72-5.89h0V507.45q-7.77,2.44-19.63,6.13T2560,519.31h0a44.62,44.62,0,0,0-17.59,11.86q-6.94,7.77-6.95,19.22h0a27.55,27.55,0,0,0,7.77,19.38A25.1,25.1,0,0,0,2562.47,578.2Zm146-151.32h0q12.27,0,23.06-.81t17.42-1.23h0a23.71,23.71,0,0,1,.58,5.32c.16,2.72-.3,4.77-1.39,6.13h0a48.55,48.55,0,0,0-10.47,1.23c-3.66.81-5.48,2.72-5.48,5.72h0q0,1.63,2,4.91h0l26.17,41.71q5.32-8.58,11.86-17.58t11.46-16.61q4.91-7.51,4.9-11.61h0c0-2.18-1.22-3.82-3.68-4.91a26.08,26.08,0,0,0-8.42-2c-3.11-.27-5.62-.55-7.53-.82h-2.45c-.27-.27-.49-2-.66-5.32s.11-5.31.66-6.13h0q12.27.41,20,1.23a200.55,200.55,0,0,0,20,.81h0q10.62,0,19.38-.81t12.92-1.23h0a32.41,32.41,0,0,1,.41,6.54c0,3.27-.27,4.91-.82,4.91h0a83.14,83.14,0,0,0-10.06.82,76.13,76.13,0,0,0-12.26,2.62q-5.89,1.88-8.76,5.56h0q-6.94,9.81-15.54,22.08T2776.52,489q-6.7,9.42-8.75,11.86h0q1.21,1.64,6.29,9.41t12.11,18q6.95,10.23,13.66,20.21t11.28,16.6l4.5,6.54h0q6.13,8.6,14.07,11.62a45.56,45.56,0,0,0,16.6,3.1h0q.82,0,.58,5.08t-1,6.38h0q-11.05-.83-18.82-1.48t-18.81-.57h0q-12.67,0-21.92.57t-22.24,1.48h0a18.19,18.19,0,0,1-.66-6.79c.16-3.11.52-4.67,1.06-4.67h0a64.84,64.84,0,0,0,10.64-2q6.13-1.64,6.13-5.32h0a6.22,6.22,0,0,0-.82-2.45h0l-3.27-5.32q-3.27-5.31-8.42-13.49t-10.39-16.61q-5.31-8.34-9.41-14.47h0q-5.72,8.58-13.33,19.38t-15.7,24h0a10.79,10.79,0,0,0-1.88,4.09,32.55,32.55,0,0,0-.17,3.27h0q0,5.72,7.53,7t14.15,2h0c.54,0,.82,1.64.82,4.91s-.41,5.45-1.23,6.55h0q-11.44-.83-18.65-1.48t-19-.57h0q-11.46,0-18.82.57t-18.81,1.48h0a30.39,30.39,0,0,1-.24-6.14,15.08,15.08,0,0,1,1.06-5.32h0q9.4-1.64,20.45-4.08a28.74,28.74,0,0,0,17.58-11.46h0l3.68-5.56q3.69-5.47,9.41-13.49t11.2-16.36q5.56-8.34,9.82-14.23c2.89-4,4.47-6.25,4.74-6.79h0q-.81-1.64-6-9T2723.76,488q-6.71-10-13.25-19.79t-10.88-16.36l-4.25-6.54h0q-3.27-4.91-12.1-7a67.43,67.43,0,0,0-14.89-2h0c-.27,0-.41-1.64-.41-4.91s.27-5.45.82-6.54h0q9.81.81,19,1.39T2708.47,426.88Zm181.08,0h0q11.46,0,23.15-.81t16.93-1.23h0q.81,1.64.41,6.54t-2.05,4.91h0q-1.23,0-6.13.41a41,41,0,0,0-9.16,1.8q-4.34,1.47-4.34,4.74h0a3.24,3.24,0,0,0,.49,1.64h0l42.45,108,3.27-8.83q3.36-8.76,8.59-22.49t11.45-29.61q6.13-16,11.94-29.86h0a28.7,28.7,0,0,0,2-7.11c.22-2.35.33-4.2.33-5.56h0q0-6.13-6.3-9.65t-16.52-3.44h0q-1.72,0-1.72-4.91t1.72-6.54h0q4.41.41,14.06,1.23t21.84.81h0q11.46,0,19.47-.81t14.15-1.23h0q1.14,1.64.57,6.54t-1.88,4.91h0a36.75,36.75,0,0,0-6.71,1.23,45.74,45.74,0,0,0-10.63,4.09,16.44,16.44,0,0,0-7.93,8.58h0q-9.09,21.27-16.2,38.45T2979,521.92q-6.7,16.2-13.91,33.54l-15.78,38.68h0q-7.37,18.4-14.32,36.81a169.53,169.53,0,0,1-17.58,34.35h0a53.72,53.72,0,0,1-15.7,16.36,33.78,33.78,0,0,1-19.06,6.13h0a22.91,22.91,0,0,1-11.45-3.27q-5.73-3.27-5.73-13.9h0a16.59,16.59,0,0,1,1.48-7,14.62,14.62,0,0,1,3.1-4.91h0a124.36,124.36,0,0,0,16.53-1,31.73,31.73,0,0,0,13.9-6q6.71-4.9,14.89-15.54h0a84.31,84.31,0,0,0,7.36-13.25q4.08-8.84,7.6-17a81.85,81.85,0,0,0,3.85-10.22h0q-11-28.62-20.86-53.41t-19.79-48.66q-10.07-23.9-21.92-49.24h0q-2.86-6.14-10.23-7.2a92.25,92.25,0,0,0-11-1h-.73q-.49,0-.49-5.56t.49-5.89h0l16.68,1.23Q2877.28,426.88,2889.55,426.88Z" transform="translate(-18.76 0)"/></g><g id="icon-0"><path class="cls-1" d="M18.76,443c0-244.65,198.33-443,443-443s443,198.32,443,443-198.32,443-443,443S18.76,687.62,18.76,443Zm443,409.74C688,852.71,871.47,669.26,871.47,443S688,33.23,461.73,33.23,52,216.68,52,443,235.44,852.71,461.73,852.71Z" transform="translate(-18.76 0)"/><path class="cls-1" d="M445.34,377.21a74,74,0,1,0,73.95,74,74,74,0,0,0-73.95-74m0,131.13a57.18,57.18,0,1,1,57.17-57.18,57.24,57.24,0,0,1-57.17,57.18" transform="translate(-18.76 0)"/><path class="cls-1" d="M445.34,412.8a5.59,5.59,0,1,0,0,11.18,27.24,27.24,0,0,1,27.2,27.18,5.59,5.59,0,1,0,11.18,0,38.42,38.42,0,0,0-38.38-38.36" transform="translate(-18.76 0)"/><path class="cls-1" d="M683.2,369.22a57.62,57.62,0,0,0-57.56-57.56,57,57,0,0,0-27.54,7,202.14,202.14,0,0,0-223.18-57.15A73.88,73.88,0,1,0,265.35,359a201.93,201.93,0,0,0,59.71,254.68A57.53,57.53,0,0,0,433.1,653c4.07.24,8.16.4,12.24.4,111.54,0,202.28-90.75,202.28-202.28a204,204,0,0,0-2-28.05,57.58,57.58,0,0,0,37.55-53.89M257,303.65a57.17,57.17,0,1,1,57.17,57.17A57.24,57.24,0,0,1,257,303.65m122.74,368.6a40.79,40.79,0,1,1,40.78-40.78,40.83,40.83,0,0,1-40.78,40.78M636.44,451.16c0,105.38-85.73,191.1-191.1,191.1-3,0-6-.08-9-.22a58.45,58.45,0,0,0,1-10.57,57.53,57.53,0,0,0-107.65-28.26,190.82,190.82,0,0,1-55.3-237.34,73.8,73.8,0,0,0,106.25-94.51A190.93,190.93,0,0,1,588.81,325a57.39,57.39,0,0,0,46,100.94,195.85,195.85,0,0,1,1.65,25.18M625.64,410a40.79,40.79,0,1,1,40.79-40.78A40.83,40.83,0,0,1,625.64,410" transform="translate(-18.76 0)"/><path class="cls-1" d="M543.68,475.56a24.78,24.78,0,1,0,24.78,24.78,24.8,24.8,0,0,0-24.78-24.78m0,32.78a8,8,0,1,1,8-8,8,8,0,0,1-8,8" transform="translate(-18.76 0)"/><path class="cls-1" d="M625.64,246.47a24.78,24.78,0,1,0-24.78-24.78,24.81,24.81,0,0,0,24.78,24.78m0-32.78a7.82,7.82,0,1,1-8,8,8,8,0,0,1,8-8" transform="translate(-18.76 0)"/><path class="cls-1" d="M314.22,276.46a27.21,27.21,0,0,1,27.18,27.19,5.6,5.6,0,0,0,11.19,0,38.42,38.42,0,0,0-38.37-38.38,5.6,5.6,0,1,0,0,11.19" transform="translate(-18.76 0)"/><path class="cls-1" d="M625.64,347.23a5.59,5.59,0,0,0,0,11.18,10.81,10.81,0,0,1,10.8,10.8,5.6,5.6,0,0,0,11.19,0,22,22,0,0,0-22-22" transform="translate(-18.76 0)"/><path class="cls-1" d="M379.78,609.48a5.59,5.59,0,0,0,0,11.18,10.82,10.82,0,0,1,10.8,10.81,5.59,5.59,0,1,0,11.18,0,22,22,0,0,0-22-22" transform="translate(-18.76 0)"/></g></g></svg>